<?xml version="1.0" encoding="UTF-8"?>
<svg width="192px" height="192px" viewBox="0 0 1166 1043" version="1.1" xmlns="http://www.w3.org/2000/svg" xmlns:xlink="http://www.w3.org/1999/xlink">
    <!-- Generator: Sketch 61 (89581) - https://sketch.com -->
    <title>icon</title>
    <desc>Created with Sketch.</desc>
    <g id="Page-1" stroke="none" stroke-width="1" fill="none" fill-rule="evenodd">
        <g id="icon" transform="translate(-17.000000, -107.000000)">
            <rect id="Rectangle" x="0" y="0" width="1200" height="1200"></rect>
            <g id="Group" transform="translate(16.125641, 106.700000)" fill-rule="nonzero">
                <path d="M248.394005,982.926747 L16.939336,581.628011 C-4.48063337,544.452362 -4.48063337,498.651963 16.939336,461.476314 L248.394005,60.4749834 C269.913141,23.2001996 309.678918,0.3 352.518856,0.3 L815.130695,0.3 C858.0698,0.3 897.934743,23.2001996 919.255546,60.4749834 L1150.80938,461.674584 C1172.22935,498.850233 1172.22935,544.650632 1150.80938,581.826281 L919.354713,983.125017 C897.835577,1020.3998 858.0698,1043.3 815.229862,1043.3 L352.816356,1043.3 C309.678918,1043.10173 270.012308,1020.1024 248.394005,982.926747 Z" id="XMLID_7_" fill="#FFFFFF"></path>
                <path d="M268.637417,955.608547 L51.0416281,578.293231 C30.8186026,543.307072 30.8186026,500.193817 51.0416281,465.306769 L268.637417,87.8923419 C288.959575,52.8070721 326.332519,31.3 366.679438,31.3 L801.871015,31.3 C842.217934,31.3 879.690011,52.8070721 899.913036,87.8923419 L1117.70709,465.108547 C1137.93012,500.094706 1137.93012,543.207961 1117.70709,578.095009 L900.012168,955.707658 C879.690011,990.792928 842.317066,1012.3 801.970148,1012.3 L366.877703,1012.3 C326.332519,1012.3 288.959575,990.693817 268.637417,955.608547 Z" id="XMLID_1_" fill="#7C4DFF"></path>
                <path d="M364.555253,448.3 L812.753435,448.3 C818.409245,448.3 822.874359,443.744391 822.874359,438.198432 L822.874359,354.3158 C822.874359,298.559104 777.52865,253.3 721.665117,253.3 L452.567604,253.3 C374.279279,253.201081 310.874359,316.484436 310.874359,394.623039 L310.874359,394.623039 C310.775441,424.432569 334.787829,448.3 364.555253,448.3 Z" id="XMLID_2_" fill="#F7F7F7"></path>
                <path d="M408.511704,819.3 L676.319368,819.3 C757.187559,819.3 822.874359,753.772081 822.874359,673.099492 L822.874359,673.099492 C822.874359,646.175635 801.044909,624.3 773.956546,624.3 L320.598555,624.3 C315.041968,624.3 310.874359,628.754315 310.874359,634.000508 L310.874359,721.701015 C310.775302,775.647716 354.632652,819.3 408.511704,819.3 Z" id="XMLID_3_" fill="#F7F7F7"></path>
                <path d="M330.5132,437.763883 L664.42943,771.721091 C686.531929,793.826303 722.312208,793.826303 744.414707,771.721091 L802.297485,713.83121 C824.399984,691.725999 824.399984,655.941329 802.297485,633.836117 L468.480369,299.878909 C446.37787,277.773697 410.597592,277.773697 388.495092,299.878909 L330.612315,357.76879 C308.311587,379.874001 308.311587,415.757798 330.5132,437.763883 Z" id="XMLID_4_" fill="#F7F7F7"></path>
                <polygon id="XMLID_6_" fill="#444444" opacity="0.3" points="669.874359 777.3 473.874359 624.3 517.253844 624.3"></polygon>
                <polygon id="XMLID_5_" fill="#444444" opacity="0.3" points="462.874359 294.3 617.430393 449.3 669.874359 449.3"></polygon>
            </g>
        </g>
    </g>
</svg>